<?xml version="1.0" encoding="UTF-8" standalone="no"?>
<!-- Created with Inkscape (http://www.inkscape.org/) -->

<svg
   width="60.304825mm"
   height="45.234058mm"
   viewBox="0 0 60.304825 45.234058"
   version="1.1"
   id="svg1"
   inkscape:version="1.3 (0e150ed6c4, 2023-07-21)"
   sodipodi:docname="drawing.svg"
   xmlns:inkscape="http://www.inkscape.org/namespaces/inkscape"
   xmlns:sodipodi="http://sodipodi.sourceforge.net/DTD/sodipodi-0.dtd"
   xmlns="http://www.w3.org/2000/svg"
   xmlns:svg="http://www.w3.org/2000/svg">
  <sodipodi:namedview
     id="namedview1"
     pagecolor="#505050"
     bordercolor="#eeeeee"
     borderopacity="1"
     inkscape:showpageshadow="0"
     inkscape:pageopacity="0"
     inkscape:pagecheckerboard="0"
     inkscape:deskcolor="#505050"
     inkscape:document-units="mm"
     showgrid="true"
     showguides="true"
     inkscape:zoom="0.51535845"
     inkscape:cx="568.53633"
     inkscape:cy="-711.15551"
     inkscape:window-width="1920"
     inkscape:window-height="1009"
     inkscape:window-x="3432"
     inkscape:window-y="-8"
     inkscape:window-maximized="1"
     inkscape:current-layer="layer1">
    <inkscape:grid
       id="grid1"
       units="mm"
       originx="-216.88063"
       originy="-197.98219"
       spacingx="0.99999998"
       spacingy="1"
       empcolor="#0099e5"
       empopacity="0.30196078"
       color="#0099e5"
       opacity="0.14901961"
       empspacing="5"
       dotted="false"
       gridanglex="30"
       gridanglez="30"
       visible="true" />
  </sodipodi:namedview>
  <defs
     id="defs1">
    <filter
       inkscape:collect="always"
       style="color-interpolation-filters:sRGB"
       id="filter195"
       x="-0.10044271"
       y="-0.10044273"
       width="1.2008854"
       height="1.2008855">
      <feGaussianBlur
         inkscape:collect="always"
         stdDeviation="1.1120121"
         id="feGaussianBlur195" />
    </filter>
    <filter
       inkscape:collect="always"
       style="color-interpolation-filters:sRGB"
       id="filter196"
       x="-0.090542282"
       y="-0.065423682"
       width="1.1810846"
       height="1.1308474">
      <feGaussianBlur
         inkscape:collect="always"
         stdDeviation="1.0903986"
         id="feGaussianBlur196" />
    </filter>
    <filter
       inkscape:collect="always"
       style="color-interpolation-filters:sRGB"
       id="filter197"
       x="-0.10044271"
       y="-0.10044273"
       width="1.2008854"
       height="1.2008855">
      <feGaussianBlur
         inkscape:collect="always"
         stdDeviation="1.1120121"
         id="feGaussianBlur197" />
    </filter>
    <filter
       inkscape:collect="always"
       style="color-interpolation-filters:sRGB"
       id="filter198"
       x="-0.090542263"
       y="-0.065423679"
       width="1.1810845"
       height="1.1308474">
      <feGaussianBlur
         inkscape:collect="always"
         stdDeviation="1.0903986"
         id="feGaussianBlur198" />
    </filter>
  </defs>
  <g
     inkscape:label="Layer 1"
     inkscape:groupmode="layer"
     id="layer1"
     transform="translate(-57.383001,-52.382788)">
    <path
       id="path188"
       style="fill:#f9f9f9;stroke-width:0.264583"
       d="m 79.999768,54.999744 a 20,20 0 0 0 -19.999813,20.000329 20,20 0 0 0 19.999813,19.999813 20,20 0 0 0 8.880595,-2.11925 L 87.714026,91.714299 A 18.000002,18.523985 0 0 1 79.999768,93.524007 18.000002,18.523985 0 0 1 62.682479,79.999768 h 2.149223 a 15.999759,15.999759 0 0 0 15.168066,10.999845 15.999759,15.999759 0 0 0 5.835303,-1.16427 l -0.946712,-0.946712 a 14.399785,14.818965 0 0 1 -4.888591,0.930176 14.399785,14.818965 0 0 1 -13.517521,-9.819039 h 3.746541 a 11,11 0 0 1 -1.228865,-4.999695 11,11 0 0 1 1.229382,-5.000211 h -3.746541 a 14.399785,14.818965 0 0 1 13.517004,-9.818522 14.399785,14.818965 0 0 1 4.888074,0.930692 l 0.954464,-0.954464 a 15.999759,15.999759 0 0 0 -5.842538,-1.157552 15.999759,15.999759 0 0 0 -15.16755,10.999846 h -2.149222 a 18.000002,18.523985 0 0 1 17.316772,-13.523723 18.000002,18.523985 0 0 1 7.714258,1.809709 l 1.189075,-1.189075 a 20,20 0 0 0 -8.903333,-2.097029 z" />
    <rect
       style="fill:#f9f9f9;stroke-width:0.175754"
       id="rect191-9"
       width="26.57066"
       height="26.570656"
       x="106.74061"
       y="-8.7613144"
       transform="matrix(0.79836938,0.60216803,-0.79836938,0.60216803,0,0)" />
    <path
       id="path188-8"
       style="fill:#f9f9f9;stroke-width:0.264583"
       d="m 79.999771,54.999746 a 20,20 0 0 0 -19.99981,20.000329 20,20 0 0 0 19.99981,19.999814 20,20 0 0 0 8.8806,-2.11925 l -1.16634,-1.16634 a 18.000002,18.523985 0 0 1 -7.71426,1.80971 18.000002,18.523985 0 0 1 -17.31729,-13.52424 h 2.14922 a 15.999759,15.999759 0 0 0 15.16807,10.99985 15.999759,15.999759 0 0 0 5.8353,-1.16427 l -0.94671,-0.94672 a 14.399785,14.818965 0 0 1 -4.88859,0.93018 14.399785,14.818965 0 0 1 -13.51752,-9.81904 h 3.74654 a 11,11 0 0 1 -1.22886,-4.999694 11,11 0 0 1 1.22938,-5.000211 h -3.74654 a 14.399785,14.818965 0 0 1 13.517,-9.818522 14.399785,14.818965 0 0 1 4.88807,0.930692 l 0.95447,-0.954464 a 15.999759,15.999759 0 0 0 -5.84254,-1.157552 15.999759,15.999759 0 0 0 -15.16755,10.999846 h -2.14922 a 18.000002,18.523985 0 0 1 17.31677,-13.523723 18.000002,18.523985 0 0 1 7.71426,1.809709 l 1.18907,-1.189075 a 20,20 0 0 0 -8.90333,-2.097029 z" />
    <rect
       style="fill:#f9f9f9;stroke-width:0.175754"
       id="rect191-9-9"
       width="26.57066"
       height="26.570656"
       x="106.74061"
       y="-8.7613144"
       transform="matrix(0.79836938,0.60216803,-0.79836938,0.60216803,0,0)" />
    <path
       id="path188-7"
       style="fill:#f9f9f9;stroke-width:0.264583;filter:url(#filter198)"
       d="m 79.999765,54.999744 a 20,20 0 0 0 -19.999809,20.000329 20,20 0 0 0 19.999809,19.999814 20,20 0 0 0 8.8806,-2.119251 l -1.16634,-1.166337 A 18.000002,18.523985 0 0 1 79.999765,93.524007 18.000002,18.523985 0 0 1 62.68248,79.999768 h 2.149223 a 15.999759,15.999759 0 0 0 15.168062,10.999845 15.999759,15.999759 0 0 0 5.83531,-1.16427 l -0.94672,-0.946712 a 14.399785,14.818965 0 0 1 -4.88859,0.930176 14.399785,14.818965 0 0 1 -13.517517,-9.819039 h 3.746541 a 11,11 0 0 1 -1.228865,-4.999695 11,11 0 0 1 1.229382,-5.000211 h -3.746541 a 14.399785,14.818965 0 0 1 13.517,-9.818522 14.399785,14.818965 0 0 1 4.88808,0.930692 l 0.95446,-0.954464 a 15.999759,15.999759 0 0 0 -5.84254,-1.157552 15.999759,15.999759 0 0 0 -15.167546,10.999846 h -2.149222 a 18.000002,18.523985 0 0 1 17.316768,-13.523723 18.000002,18.523985 0 0 1 7.71426,1.809709 l 1.18908,-1.189075 a 20,20 0 0 0 -8.90334,-2.097029 z" />
    <rect
       style="fill:#f9f9f9;stroke-width:0.175754;filter:url(#filter197)"
       id="rect191-9-7"
       width="26.57066"
       height="26.570656"
       x="106.74061"
       y="-8.7613144"
       transform="matrix(0.79836938,0.60216803,-0.79836938,0.60216803,0,0)" />
    <path
       id="path188-8-0"
       style="fill:#f9f9f9;stroke-width:0.264583;filter:url(#filter196)"
       d="m 79.999775,54.999746 a 20,20 0 0 0 -19.999813,20.000329 20,20 0 0 0 19.999813,19.999812 20,20 0 0 0 8.8806,-2.119248 l -1.16634,-1.16634 a 18.000002,18.523985 0 0 1 -7.71426,1.80971 18.000002,18.523985 0 0 1 -17.317293,-13.52424 h 2.14922 a 15.999759,15.999759 0 0 0 15.168073,10.99985 15.999759,15.999759 0 0 0 5.8353,-1.16427 l -0.94671,-0.94672 a 14.399785,14.818965 0 0 1 -4.88859,0.93018 14.399785,14.818965 0 0 1 -13.517523,-9.81904 h 3.74654 a 11,11 0 0 1 -1.22886,-4.999694 11,11 0 0 1 1.22938,-5.000211 h -3.74654 a 14.399785,14.818965 0 0 1 13.517003,-9.818522 14.399785,14.818965 0 0 1 4.88807,0.930692 l 0.95447,-0.954464 a 15.999759,15.999759 0 0 0 -5.84254,-1.157552 15.999759,15.999759 0 0 0 -15.167553,10.999846 h -2.14922 a 18.000002,18.523985 0 0 1 17.316773,-13.523723 18.000002,18.523985 0 0 1 7.71426,1.809709 l 1.18907,-1.189075 a 20,20 0 0 0 -8.90333,-2.097029 z" />
    <rect
       style="fill:#f9f9f9;stroke-width:0.175754;filter:url(#filter195)"
       id="rect191-9-9-0"
       width="26.57066"
       height="26.570656"
       x="106.74061"
       y="-8.7613144"
       transform="matrix(0.79836938,0.60216803,-0.79836938,0.60216803,0,0)" />
  </g>
</svg>
