<?xml version="1.0" encoding="UTF-8" standalone="no"?>
<!-- Created with Inkscape (http://www.inkscape.org/) -->

<svg
   width="34.546947mm"
   height="34.586212mm"
   viewBox="0 0 34.546947 34.586212"
   version="1.1"
   id="svg1"
   inkscape:version="1.3 (0e150ed6c4, 2023-07-21)"
   sodipodi:docname="drawing.svg"
   xmlns:inkscape="http://www.inkscape.org/namespaces/inkscape"
   xmlns:sodipodi="http://sodipodi.sourceforge.net/DTD/sodipodi-0.dtd"
   xmlns="http://www.w3.org/2000/svg"
   xmlns:svg="http://www.w3.org/2000/svg">
  <sodipodi:namedview
     id="namedview1"
     pagecolor="#505050"
     bordercolor="#eeeeee"
     borderopacity="1"
     inkscape:showpageshadow="0"
     inkscape:pageopacity="0"
     inkscape:pagecheckerboard="0"
     inkscape:deskcolor="#505050"
     inkscape:document-units="mm"
     showgrid="true"
     showguides="true"
     inkscape:zoom="0.51535845"
     inkscape:cx="568.53633"
     inkscape:cy="-711.15551"
     inkscape:window-width="1920"
     inkscape:window-height="1009"
     inkscape:window-x="3432"
     inkscape:window-y="-8"
     inkscape:window-maximized="1"
     inkscape:current-layer="layer1">
    <inkscape:grid
       id="grid1"
       units="mm"
       originx="-255.9882"
       originy="-198.90945"
       spacingx="0.99999998"
       spacingy="1"
       empcolor="#0099e5"
       empopacity="0.30196078"
       color="#0099e5"
       opacity="0.14901961"
       empspacing="5"
       dotted="false"
       gridanglex="30"
       gridanglez="30"
       visible="true" />
  </sodipodi:namedview>
  <defs
     id="defs1">
    <filter
       inkscape:collect="always"
       style="color-interpolation-filters:sRGB"
       id="filter200"
       x="-0.077987989"
       y="-0.077885649"
       width="1.155976"
       height="1.1557713">
      <feGaussianBlur
         inkscape:collect="always"
         stdDeviation="0.97112986"
         id="feGaussianBlur200" />
    </filter>
  </defs>
  <g
     inkscape:label="Layer 1"
     inkscape:groupmode="layer"
     id="layer1"
     transform="translate(-67.730211,-52.628127)">
    <path
       id="path198"
       style="opacity:1;fill:#f9f9f9;stroke-width:0.264583"
       d="m 85.999919,55.037467 v 0.999939 a 14.007051,14.007051 0 0 1 12.997139,12.962517 h 0.93431 A 15,15 0 0 0 85.999919,55.037467 Z M 98.997058,68.999923 H 96.913981 A 11.999998,11.999998 0 0 0 85.999919,58.078625 v -2.041219 a 14.007051,14.007051 0 0 0 -0.96945,-0.03721 14.007051,14.007051 0 0 0 -1.030428,0.0739 v 2.004528 A 11.999998,11.999998 0 0 0 73.085978,68.999923 h -1.990576 a 14.007051,14.007051 0 0 0 -0.07183,1.007173 14.007051,14.007051 0 0 0 0.05529,0.777214 h 1.988509 a 11.999998,11.999998 0 0 0 10.932666,11.137305 v 2.018481 a 14.007051,14.007051 0 0 0 1.030428,0.0739 14.007051,14.007051 0 0 0 0.96945,-0.06925 V 81.954171 A 11.999998,11.999998 0 0 0 96.934652,70.78431 h 2.046903 a 14.007051,14.007051 0 0 0 0.05581,-0.777214 14.007051,14.007051 0 0 0 -0.04031,-1.007173 z m -0.0155,1.784387 A 14.007051,14.007051 0 0 1 85.999919,83.944747 v 1.017509 A 15,15 0 0 0 99.946354,70.78431 Z M 84.000041,83.940096 A 14.007051,14.007051 0 0 1 71.078866,70.78431 H 70.06084 A 15,15 0 0 0 84.000041,84.928666 Z M 71.095402,68.999923 A 14.007051,14.007051 0 0 1 84.000041,56.074097 v -1.00304 A 15,15 0 0 0 70.077893,68.999923 Z M 85.030469,59.000016 A 11.010139,11.018732 0 0 1 96.040649,70.018982 11.010139,11.018732 0 0 1 85.030469,81.037431 11.010139,11.018732 0 0 1 74.020288,70.018982 11.010139,11.018732 0 0 1 85.030469,59.000016 Z" />
    <path
       id="path198-3"
       style="fill:#f9f9f9;stroke-width:0.264583;filter:url(#filter200)"
       d="m 86.000002,54.95884 v 0.999939 a 14.007051,14.007051 0 0 1 12.99714,12.962517 h 0.93431 A 15,15 0 0 0 86.000002,54.95884 Z m 12.99714,13.962456 h -2.08308 A 11.999998,11.999998 0 0 0 86.000002,57.999998 v -2.041219 a 14.007051,14.007051 0 0 0 -0.96945,-0.03721 14.007051,14.007051 0 0 0 -1.03043,0.0739 v 2.004528 a 11.999998,11.999998 0 0 0 -10.91406,10.921299 h -1.99058 a 14.007051,14.007051 0 0 0 -0.0718,1.007173 14.007051,14.007051 0 0 0 0.0553,0.777214 h 1.98851 a 11.999998,11.999998 0 0 0 10.93267,11.137305 v 2.018481 a 14.007051,14.007051 0 0 0 1.03043,0.0739 14.007051,14.007051 0 0 0 0.96945,-0.06925 v -1.990575 a 11.999998,11.999998 0 0 0 10.93473,-11.169861 h 2.04691 a 14.007051,14.007051 0 0 0 0.0558,-0.777214 14.007051,14.007051 0 0 0 -0.0403,-1.007173 z m -0.0155,1.784387 A 14.007051,14.007051 0 0 1 86.000002,83.86612 v 1.017509 A 15,15 0 0 0 99.946442,70.705683 Z M 84.000122,83.861469 A 14.007051,14.007051 0 0 1 71.078952,70.705683 h -1.01803 a 15,15 0 0 0 13.9392,14.144356 z M 71.095482,68.921296 A 14.007051,14.007051 0 0 1 84.000122,55.99547 v -1.00304 a 15,15 0 0 0 -13.92214,13.928866 z m 13.93507,-9.999907 a 11.010139,11.018732 0 0 1 11.01018,11.018966 11.010139,11.018732 0 0 1 -11.01018,11.018449 11.010139,11.018732 0 0 1 -11.01018,-11.018449 11.010139,11.018732 0 0 1 11.01018,-11.018966 z" />
  </g>
</svg>
